<svg width="1920" height="1300" viewBox="0 0 1920 1300" fill="none" xmlns="http://www.w3.org/2000/svg">
<g clip-path="url(#clip0_120_10)">
<rect width="1920" height="1300" fill="white"/>
<g opacity="0.3">
<mask id="mask0_120_10" style="mask-type:alpha" maskUnits="userSpaceOnUse" x="1183" y="130" width="1140" height="1118">
<g clip-path="url(#clip1_120_10)">
<path d="M1904.23 218.003C1904.23 218.003 1904.08 218.003 1904.01 217.93L1904.15 217.712C1904.15 217.712 1904.15 217.93 1904.15 218.003H1904.23Z" fill="#B5DDED"/>
<path d="M1492.54 1122.11C1526.66 1160.94 1571.04 1184.07 1617.96 1203.2C1654.84 1218.25 1693.62 1227.13 1733.49 1238.18C1686.34 1256.07 1585.73 1248.29 1530.08 1224.58C1492.11 1208.36 1459.01 1185.31 1428.82 1157.6C1389.02 1121.09 1353.38 1080.14 1305.65 1047.85C1365.09 1021.81 1422.71 1017.37 1482.14 1030.32C1560.42 1047.41 1625.53 1089.16 1685.98 1139.34C1714.35 1162.91 1741.56 1187.93 1767.31 1217.6C1752.69 1220.44 1741.56 1215.27 1730.36 1212.8C1684.89 1202.76 1638.69 1195.56 1595.48 1177.16C1559.47 1161.82 1527.1 1139.85 1492.33 1122.25C1491.82 1121.81 1491.31 1121.38 1490.8 1121.01C1491.38 1121.38 1491.96 1121.67 1492.54 1122.03V1122.11Z" fill="#B5DDED"/>
<path d="M1329.73 740.565C1333.3 758.893 1346.17 771.766 1357.01 785.658C1394.55 833.659 1444.89 865.442 1496.84 895.116C1504.04 899.261 1512.69 901.516 1518.15 908.934C1483.81 911.844 1410.34 888.643 1378.47 871.842C1310.16 835.914 1271.39 774.966 1234.8 711.619C1219.81 685.727 1203.44 660.854 1183 635.035C1215.3 626.525 1245.27 630.162 1274.66 636.271C1351.56 652.199 1410.12 697.8 1460.24 755.402C1497.27 797.949 1528.77 844.641 1552.85 896.861C1467.95 859.769 1389.82 813.149 1329.44 740.711L1328.35 739.838L1329.66 740.565H1329.73Z" fill="#B5DDED"/>
<path d="M1950.27 484.775C1909.1 568.778 1836.42 618.525 1754.44 659.108C1771.31 630.307 1787.03 600.706 1805.43 572.924C1821.8 548.268 1834.97 520.776 1859.99 502.739C1863.27 500.412 1866.47 497.285 1865.23 492.339C1865.23 492.339 1865.38 492.339 1865.38 492.266C1865.38 492.194 1865.45 492.121 1865.52 491.975C1865.38 491.975 1865.23 491.975 1865.16 491.975C1865.16 492.121 1865.23 492.266 1865.23 492.339C1822.53 513.867 1798.52 552.85 1773.5 590.742C1765.42 602.961 1758.44 615.834 1748.03 633.216C1742.87 606.452 1754.15 588.269 1759.24 569.796C1776.77 507.176 1815.76 460.629 1871.85 427.828C1903.13 409.5 1935.43 392.554 1965.84 367.026C1972.1 409.718 1968.03 448.338 1950.13 484.848L1950.27 484.775Z" fill="#B5DDED"/>
<path d="M1747.16 1079.19C1765.57 1102.83 1788.63 1122.11 1788.63 1122.11C1800.34 1131.85 1811.11 1139.27 1819.69 1144.65C1824.64 1135.49 1819.47 1129.23 1817.58 1122.76C1802.01 1069.96 1795.69 1016.36 1805.43 961.882C1815.04 908.353 1834.61 858.315 1862.32 811.477C1903.13 742.529 1950.78 677.727 1986.87 606.088C2007.67 564.632 2027.32 522.085 2028.77 474.811C2031.68 376.263 1991.89 296.624 1917.97 232.767C1913.03 228.403 1904.66 226.658 1904.37 218.003C2041.65 269.35 2149.39 349.789 2182.41 502.521C2194.35 557.941 2212.75 609.725 2253.93 650.526C2271.09 667.472 2289.94 682.745 2307.32 699.4C2327.4 718.601 2327.69 729.947 2308.56 750.166C2296.77 762.602 2284.55 774.748 2271.53 785.803C2256.98 798.167 2259.6 809.222 2270.95 821.659C2294.45 847.478 2294.3 850.533 2272.11 876.715C2268.11 881.443 2258.51 887.406 2272.55 891.479C2289.65 896.425 2287.68 907.844 2279.82 917.662C2262.15 939.917 2263.17 961.882 2272.11 987.773C2295.25 1054.9 2260.47 1094.4 2188.67 1086.54C2135.27 1080.65 2083.33 1067.92 2030.95 1056.94C1937.4 1037.3 1897.9 1063.48 1880.07 1157.67C1875.85 1180.14 1873.53 1202.83 1873.23 1225.82C1873.16 1231.34 1874.76 1238.76 1869.02 1241.45C1863.2 1244.15 1859.05 1237.53 1854.54 1234.4C1741.12 1155.12 1662.19 1050.39 1611.78 921.08C1578.82 836.641 1561.07 751.475 1572.06 661.872C1584.13 563.105 1618.98 471.32 1664.81 383.172C1677.47 358.662 1696.53 338.298 1706.86 312.624C1682.2 326.079 1671.21 351.607 1654.77 372.262C1612.65 425.355 1586.32 486.593 1565.58 550.377C1559.98 567.687 1557.43 585.942 1552.2 609.652C1536.77 557.65 1532.19 510.231 1537.94 462.011C1547.69 380.699 1588.86 314.951 1642.62 256.04C1679.65 215.457 1718.06 176.183 1755.31 135.818C1765.71 124.545 1768.62 131.891 1772.84 140.473C1801 198.584 1806.67 259.386 1793.36 321.934C1773.79 413.864 1728.68 494.23 1673.9 568.632C1617.31 645.435 1592.79 729.729 1610.83 822.168C1620.43 871.333 1640.3 919.335 1666.34 968.209C1664.01 963.845 1668.08 956.791 1668.67 952.281C1669.47 946.39 1671.5 940.863 1673.54 935.263C1678.05 922.971 1683.14 910.825 1688.89 899.043C1700.39 875.479 1714.35 853.078 1730.5 832.423C1735.01 826.605 1739.74 821.004 1744.54 815.477C1749.71 809.659 1755.09 803.84 1758.44 796.785C1717.99 821.368 1692.53 863.915 1668.74 904.789C1670.92 853.66 1694.2 803.404 1733.19 770.312C1764.19 744.056 1803.54 729.147 1834.61 702.964C1836.06 738.311 1832.06 788.058 1800.56 828.568C1760.04 880.715 1710.86 870.024 1692.67 914.971C1667.58 976.864 1734.5 1062.76 1747.38 1079.27L1747.16 1079.19Z" fill="#B5DDED"/>
<path d="M1676.23 920.28C1676.01 921.371 1675.72 922.535 1675.58 923.699L1676.23 920.28Z" fill="#B5DDED"/>
<path d="M1865.6 492.048C1865.6 492.048 1865.52 492.194 1865.45 492.339C1865.45 492.339 1865.31 492.339 1865.31 492.412C1865.31 492.266 1865.31 492.121 1865.23 492.048C1865.38 492.048 1865.52 492.048 1865.6 492.048Z" fill="#B5DDED"/>
<path d="M1458.06 667.908C1420.52 651.181 1397.75 619.325 1377.46 586.015C1356.65 551.832 1347.99 513.503 1347.56 473.575C1347.12 434.665 1347.48 395.681 1347.48 355.607C1392.73 372.117 1425.25 405.718 1449.4 448.12C1464.83 475.248 1472.39 504.994 1479.67 535.468C1490.87 582.597 1494 629.435 1490.07 677.8C1448.68 618.889 1413.39 557.432 1400.01 486.084C1395.06 527.468 1410.48 582.597 1442.93 639.689C1448.17 648.926 1453.04 658.454 1458.13 667.836H1458.06V667.908Z" fill="#B5DDED"/>
<path d="M1458.13 667.836C1459.15 669.29 1460.17 670.745 1461.12 672.2C1460.53 672.49 1460.03 672.781 1459.44 673.072C1459.01 671.327 1458.5 669.581 1458.06 667.908H1458.13V667.836Z" fill="#B5DDED"/>
<path d="M1711.08 303.678C1711.52 303.097 1711.88 302.515 1712.32 302.006C1711.81 302.515 1711.37 302.951 1710.86 303.46L1711.08 303.678Z" fill="#B5DDED"/>
<path d="M1492.54 1122.11C1491.96 1121.74 1491.38 1121.45 1490.8 1121.09C1491.31 1121.52 1491.82 1121.96 1492.33 1122.32L1492.54 1122.11Z" fill="#B5DDED"/>
<path d="M1329.73 740.565L1328.42 739.911L1329.52 740.783L1329.73 740.565Z" fill="#B5DDED"/>
<path d="M1865.6 492.048C1865.6 492.048 1865.52 492.194 1865.45 492.339L1865.16 492.048C1865.16 492.048 1865.45 492.048 1865.52 492.048H1865.6Z" fill="#B5DDED"/>
<path d="M1681.25 911.553C1679.58 914.462 1677.98 917.371 1676.23 920.28L1681.25 911.553Z" fill="#B5DDED"/>
</g>
</mask>
<g mask="url(#mask0_120_10)">
<rect x="1183" y="79.3511" width="762.713" height="1309.42" fill="#B5DDED"/>
</g>
</g>
</g>
<defs>
<clipPath id="clip0_120_10">
<rect width="1920" height="1300" fill="white"/>
</clipPath>
<clipPath id="clip1_120_10">
<rect width="1139.6" height="1118" fill="white" transform="translate(1183 130)"/>
</clipPath>
</defs>
</svg>
