<svg width="737" height="1118" viewBox="0 0 737 1118" fill="none" xmlns="http://www.w3.org/2000/svg">
<g opacity="0.3">
<mask id="mask0_120_288" style="mask-type:alpha" maskUnits="userSpaceOnUse" x="0" y="0" width="1140" height="1118">
<g clip-path="url(#clip0_120_288)">
<path d="M721.226 88.0028C721.226 88.0028 721.08 88.0028 721.007 87.9301L721.153 87.7119C721.153 87.7119 721.153 87.9301 721.153 88.0028H721.226Z" fill="#B5DDED"/>
<path d="M309.543 992.105C343.662 1030.94 388.039 1054.07 434.961 1073.2C471.845 1088.25 510.619 1097.13 550.485 1108.18C503.345 1126.07 402.734 1118.29 347.081 1094.58C309.107 1078.36 276.006 1055.31 245.816 1027.6C206.023 991.087 170.376 950.14 122.653 917.848C182.089 891.811 239.705 887.374 299.14 900.32C377.417 917.412 442.527 959.158 502.981 1009.34C531.353 1032.91 558.56 1057.93 584.313 1087.6C569.691 1090.44 558.56 1085.27 547.357 1082.8C501.89 1072.76 455.694 1065.56 412.482 1047.16C376.472 1031.82 344.099 1009.85 309.325 992.25C308.816 991.814 308.307 991.378 307.797 991.014C308.379 991.378 308.961 991.669 309.543 992.032V992.105Z" fill="#B5DDED"/>
<path d="M146.733 610.565C150.298 628.893 163.174 641.766 174.014 655.658C211.552 703.659 261.893 735.442 313.836 765.116C321.038 769.261 329.695 771.516 335.151 778.934C300.814 781.844 227.338 758.643 195.474 741.842C127.164 705.914 88.389 644.966 51.7967 581.619C36.8106 555.727 20.4422 530.854 0 505.035C32.3002 496.525 62.2724 500.162 91.6627 506.271C168.558 522.199 227.12 567.8 277.243 625.402C314.272 667.949 345.772 714.641 369.852 766.861C284.955 729.769 206.823 683.149 146.442 610.711L145.351 609.838L146.66 610.565H146.733Z" fill="#B5DDED"/>
<path d="M767.275 354.775C726.099 438.778 653.424 488.525 571.437 529.108C588.314 500.307 604.028 470.706 622.433 442.924C638.802 418.268 651.969 390.776 676.994 372.739C680.268 370.412 683.469 367.285 682.232 362.339C682.232 362.339 682.378 362.339 682.378 362.266C682.378 362.194 682.451 362.121 682.523 361.975C682.378 361.975 682.232 361.975 682.16 361.975C682.16 362.121 682.232 362.266 682.232 362.339C639.529 383.867 615.522 422.85 590.497 460.742C582.422 472.961 575.438 485.834 565.035 503.216C559.87 476.452 571.146 458.269 576.238 439.796C593.771 377.176 632.764 330.629 688.852 297.828C720.134 279.5 752.434 262.554 782.843 237.026C789.099 279.718 785.025 318.338 767.129 354.848L767.275 354.775Z" fill="#B5DDED"/>
<path d="M564.162 949.194C582.567 972.832 605.629 992.105 605.629 992.105C617.341 1001.85 628.108 1009.27 636.692 1014.65C641.639 1005.49 636.474 999.232 634.582 992.76C619.014 939.958 612.685 886.356 622.433 831.882C632.036 778.353 651.605 728.315 679.323 681.477C720.134 612.529 767.784 547.727 803.867 476.088C824.673 434.632 844.315 392.085 845.77 344.811C848.68 246.263 808.887 166.624 734.975 102.767C730.028 98.4032 721.662 96.6577 721.371 88.0029C858.647 139.35 966.387 219.789 999.415 372.521C1011.35 427.941 1029.75 479.725 1070.93 520.526C1088.09 537.472 1106.94 552.745 1124.32 569.4C1144.4 588.601 1144.69 599.947 1125.56 620.166C1113.77 632.602 1101.55 644.748 1088.53 655.803C1073.98 668.167 1076.6 679.222 1087.95 691.659C1111.45 717.478 1111.3 720.533 1089.11 746.715C1085.11 751.443 1075.51 757.406 1089.55 761.479C1106.65 766.425 1104.68 777.844 1096.82 787.662C1079.15 809.917 1080.17 831.882 1089.11 857.773C1112.25 924.903 1077.47 964.395 1005.67 956.54C952.274 950.649 900.331 937.921 847.953 926.939C754.399 907.302 714.896 933.485 697.073 1027.67C692.854 1050.14 690.526 1072.83 690.235 1095.82C690.162 1101.34 691.763 1108.76 686.015 1111.45C680.196 1114.15 676.049 1107.53 671.538 1104.4C558.124 1025.12 479.192 920.394 428.778 791.08C395.823 706.641 378.072 621.475 389.057 531.872C401.134 433.105 435.98 341.32 481.811 253.172C494.469 228.662 513.529 208.298 523.86 182.624C499.198 196.079 488.213 221.607 471.772 242.262C429.651 295.355 403.316 356.593 382.583 420.377C376.981 437.687 374.435 455.942 369.197 479.652C353.774 427.65 349.191 380.231 354.938 332.011C364.687 250.699 405.862 184.951 459.623 126.04C496.652 85.4573 535.063 46.1833 572.31 5.81839C582.713 -5.45471 585.623 1.89099 589.842 10.4731C617.996 68.5841 623.67 129.386 610.357 191.934C590.788 283.864 545.684 364.23 490.905 438.632C434.307 515.435 409.791 599.729 427.832 692.168C437.435 741.333 457.295 789.335 483.339 838.209C481.011 833.845 485.085 826.791 485.667 822.281C486.467 816.39 488.504 810.863 490.541 805.263C495.051 792.971 500.144 780.825 505.891 769.043C517.385 745.479 531.353 723.078 547.503 702.423C552.013 696.605 556.742 691.004 561.543 685.477C566.708 679.659 572.092 673.84 575.438 666.785C534.99 691.368 509.528 733.915 485.74 774.789C487.922 723.66 511.201 673.404 550.195 640.312C581.185 614.056 620.542 599.147 651.605 572.964C653.06 608.311 649.059 658.058 617.559 698.568C577.039 750.715 527.861 740.024 509.674 784.971C484.576 846.864 551.504 932.758 564.38 949.267L564.162 949.194Z" fill="#B5DDED"/>
<path d="M493.233 790.28C493.015 791.371 492.724 792.535 492.578 793.699L493.233 790.28Z" fill="#B5DDED"/>
<path d="M682.596 362.048C682.596 362.048 682.523 362.194 682.451 362.339C682.451 362.339 682.305 362.339 682.305 362.412C682.305 362.266 682.305 362.121 682.232 362.048C682.378 362.048 682.523 362.048 682.596 362.048Z" fill="#B5DDED"/>
<path d="M275.061 537.908C237.523 521.181 214.753 489.325 194.456 456.015C173.65 421.832 164.993 383.503 164.557 343.575C164.12 304.665 164.484 265.681 164.484 225.607C209.733 242.117 242.252 275.718 266.404 318.12C281.827 345.248 289.393 374.994 296.667 405.468C307.871 452.597 310.999 499.435 307.07 547.8C265.677 488.889 230.394 427.432 217.008 356.084C212.061 397.468 227.484 452.597 259.929 509.689C265.167 518.926 270.041 528.454 275.134 537.836H275.061V537.908Z" fill="#B5DDED"/>
<path d="M275.134 537.836C276.152 539.29 277.171 540.745 278.116 542.2C277.534 542.49 277.025 542.781 276.443 543.072C276.007 541.327 275.498 539.581 275.061 537.908H275.134V537.836Z" fill="#B5DDED"/>
<path d="M528.079 173.678C528.516 173.097 528.879 172.515 529.316 172.006C528.807 172.515 528.37 172.951 527.861 173.46L528.079 173.678Z" fill="#B5DDED"/>
<path d="M309.543 992.105C308.961 991.741 308.379 991.45 307.797 991.087C308.307 991.523 308.816 991.96 309.325 992.323L309.543 992.105Z" fill="#B5DDED"/>
<path d="M146.733 610.565L145.424 609.911L146.515 610.783L146.733 610.565Z" fill="#B5DDED"/>
<path d="M682.596 362.048C682.596 362.048 682.523 362.194 682.451 362.339L682.16 362.048C682.16 362.048 682.451 362.048 682.523 362.048H682.596Z" fill="#B5DDED"/>
<path d="M498.252 781.553C496.579 784.462 494.979 787.371 493.233 790.28L498.252 781.553Z" fill="#B5DDED"/>
</g>
</mask>
<g mask="url(#mask0_120_288)">
<rect y="-50.6489" width="762.713" height="1309.42" fill="#B5DDED"/>
</g>
</g>
<defs>
<clipPath id="clip0_120_288">
<rect width="1139.6" height="1118" fill="white"/>
</clipPath>
</defs>
</svg>
